<svg data-v-423bf9ae="" xmlns="http://www.w3.org/2000/svg" viewBox="0 0 1568.7673229102234 193" class="fontAboveSlogan"><!----><!----><!----><g data-v-423bf9ae="" id="5f8bccfc-ef5b-4493-b6f9-cc821353b39c" fill="#012B3D" transform="matrix(8.589835166931152,0,0,8.589835166931152,277.3577575683594,-19.456619262695312)"><path d="M3.07 13.55L3.07 5.95L0.06 5.95L0.06 3.75L8.83 3.75L8.83 5.95L5.84 5.95L5.84 13.55L3.07 13.55ZM15.93 13.55L14.15 10.95L12.64 10.95L12.64 13.55L9.87 13.55L9.87 3.75L14.35 3.75Q15.68 3.75 16.66 4.19Q17.64 4.63 18.17 5.45Q18.70 6.27 18.70 7.38L18.70 7.38Q18.70 8.44 18.21 9.23Q17.71 10.02 16.79 10.47L16.79 10.47L18.90 13.55L15.93 13.55ZM15.90 7.38Q15.90 6.69 15.47 6.31Q15.04 5.94 14.18 5.94L14.18 5.94L12.64 5.94L12.64 8.81L14.18 8.81Q15.04 8.81 15.47 8.43Q15.90 8.06 15.90 7.38L15.90 7.38ZM29.33 13.55L26.14 13.55L24.11 10.51L22.11 13.55L18.94 13.55L22.51 8.60L19.10 3.75L22.22 3.75L24.18 6.58L26.11 3.75L29.11 3.75L25.69 8.48L29.33 13.55ZM39.23 13.75Q37.69 13.75 36.46 13.10Q35.24 12.45 34.54 11.28Q33.84 10.12 33.84 8.65L33.84 8.65Q33.84 7.18 34.54 6.02Q35.24 4.86 36.46 4.21Q37.69 3.56 39.23 3.56L39.23 3.56Q40.57 3.56 41.65 4.03Q42.73 4.51 43.44 5.40L43.44 5.40L41.68 7.00Q40.73 5.85 39.37 5.85L39.37 5.85Q38.57 5.85 37.95 6.20Q37.32 6.55 36.98 7.19Q36.64 7.83 36.64 8.65L36.64 8.65Q36.64 9.48 36.98 10.11Q37.32 10.75 37.95 11.10Q38.57 11.45 39.37 11.45L39.37 11.45Q40.73 11.45 41.68 10.30L41.68 10.30L43.44 11.90Q42.73 12.80 41.65 13.27Q40.57 13.75 39.23 13.75L39.23 13.75ZM48.12 13.68Q46.90 13.68 45.92 13.17Q44.94 12.67 44.39 11.77Q43.83 10.88 43.83 9.74L43.83 9.74Q43.83 8.62 44.39 7.73Q44.94 6.83 45.91 6.33Q46.89 5.84 48.12 5.84L48.12 5.84Q49.35 5.84 50.33 6.33Q51.31 6.83 51.86 7.72Q52.40 8.61 52.40 9.74L52.40 9.74Q52.40 10.88 51.86 11.77Q51.31 12.67 50.33 13.17Q49.35 13.68 48.12 13.68L48.12 13.68ZM48.12 11.56Q48.82 11.56 49.27 11.08Q49.71 10.60 49.71 9.74L49.71 9.74Q49.71 8.90 49.27 8.43Q48.82 7.95 48.12 7.95L48.12 7.95Q47.42 7.95 46.97 8.43Q46.52 8.90 46.52 9.74L46.52 9.74Q46.52 10.60 46.97 11.08Q47.42 11.56 48.12 11.56L48.12 11.56ZM63.52 5.84Q64.92 5.84 65.75 6.68Q66.58 7.52 66.58 9.21L66.58 9.21L66.58 13.55L63.92 13.55L63.92 9.65Q63.92 8.85 63.62 8.47Q63.32 8.09 62.78 8.09L62.78 8.09Q62.17 8.09 61.81 8.51Q61.45 8.93 61.45 9.79L61.45 9.79L61.45 13.55L58.79 13.55L58.79 9.65Q58.79 8.09 57.64 8.09L57.64 8.09Q57.02 8.09 56.66 8.51Q56.29 8.93 56.29 9.79L56.29 9.79L56.29 13.55L53.63 13.55L53.63 5.96L56.17 5.96L56.17 6.76Q56.59 6.30 57.17 6.07Q57.75 5.84 58.44 5.84L58.44 5.84Q59.23 5.84 59.86 6.13Q60.49 6.43 60.89 7.03L60.89 7.03Q61.33 6.45 62.02 6.15Q62.71 5.84 63.52 5.84L63.52 5.84ZM73.04 5.84Q74.07 5.84 74.92 6.32Q75.77 6.80 76.27 7.69Q76.76 8.58 76.76 9.76L76.76 9.76Q76.76 10.93 76.27 11.82Q75.77 12.71 74.92 13.20Q74.07 13.68 73.04 13.68L73.04 13.68Q71.71 13.68 70.92 12.88L70.92 12.88L70.92 16.27L68.26 16.27L68.26 5.96L70.80 5.96L70.80 6.72Q71.54 5.84 73.04 5.84L73.04 5.84ZM72.48 11.56Q73.18 11.56 73.63 11.08Q74.07 10.60 74.07 9.76L74.07 9.76Q74.07 8.92 73.63 8.43Q73.18 7.95 72.48 7.95L72.48 7.95Q71.78 7.95 71.33 8.43Q70.88 8.92 70.88 9.76L70.88 9.76Q70.88 10.60 71.33 11.08Q71.78 11.56 72.48 11.56L72.48 11.56ZM81.06 5.84Q82.95 5.84 83.94 6.70Q84.94 7.56 84.94 9.34L84.94 9.34L84.94 13.55L82.46 13.55L82.46 12.57Q81.89 13.68 80.22 13.68L80.22 13.68Q79.34 13.68 78.69 13.37Q78.05 13.06 77.72 12.54Q77.39 12.01 77.39 11.34L77.39 11.34Q77.39 10.26 78.22 9.67Q79.04 9.07 80.77 9.07L80.77 9.07L82.28 9.07Q82.21 7.87 80.67 7.87L80.67 7.87Q80.12 7.87 79.56 8.04Q79.00 8.22 78.61 8.53L78.61 8.53L77.71 6.72Q78.34 6.30 79.25 6.07Q80.15 5.84 81.06 5.84L81.06 5.84ZM80.96 12.00Q81.42 12.00 81.77 11.77Q82.12 11.55 82.28 11.12L82.28 11.12L82.28 10.46L81.13 10.46Q79.97 10.46 79.97 11.23L79.97 11.23Q79.97 11.58 80.23 11.79Q80.50 12.00 80.96 12.00L80.96 12.00ZM91.56 5.84Q92.97 5.84 93.83 6.68Q94.70 7.52 94.70 9.21L94.70 9.21L94.70 13.55L92.04 13.55L92.04 9.65Q92.04 8.09 90.79 8.09L90.79 8.09Q90.10 8.09 89.69 8.54Q89.28 8.99 89.28 9.88L89.28 9.88L89.28 13.55L86.62 13.55L86.62 5.96L89.15 5.96L89.15 6.79Q89.60 6.33 90.22 6.08Q90.83 5.84 91.56 5.84L91.56 5.84ZM96.36 13.55L96.36 5.96L99.02 5.96L99.02 13.55L96.36 13.55ZM97.69 5.12Q96.96 5.12 96.52 4.72Q96.07 4.31 96.07 3.71L96.07 3.71Q96.07 3.11 96.52 2.70Q96.96 2.30 97.69 2.30L97.69 2.30Q98.42 2.30 98.87 2.68Q99.32 3.07 99.32 3.67L99.32 3.67Q99.32 4.30 98.87 4.71Q98.42 5.12 97.69 5.12L97.69 5.12ZM104.55 13.68Q103.33 13.68 102.35 13.17Q101.37 12.67 100.82 11.77Q100.27 10.88 100.27 9.74L100.27 9.74Q100.27 8.62 100.82 7.73Q101.37 6.83 102.35 6.33Q103.32 5.84 104.55 5.84L104.55 5.84Q105.78 5.84 106.76 6.33Q107.74 6.83 108.29 7.72Q108.84 8.61 108.84 9.74L108.84 9.74Q108.84 10.88 108.29 11.77Q107.74 12.67 106.76 13.17Q105.78 13.68 104.55 13.68L104.55 13.68ZM104.55 11.56Q105.25 11.56 105.70 11.08Q106.15 10.60 106.15 9.74L106.15 9.74Q106.15 8.90 105.70 8.43Q105.25 7.95 104.55 7.95L104.55 7.95Q103.85 7.95 103.40 8.43Q102.96 8.90 102.96 9.74L102.96 9.74Q102.96 10.60 103.40 11.08Q103.85 11.56 104.55 11.56L104.55 11.56ZM115.01 5.84Q116.42 5.84 117.28 6.68Q118.15 7.52 118.15 9.21L118.15 9.21L118.15 13.55L115.49 13.55L115.49 9.65Q115.49 8.09 114.24 8.09L114.24 8.09Q113.55 8.09 113.14 8.54Q112.73 8.99 112.73 9.88L112.73 9.88L112.73 13.55L110.07 13.55L110.07 5.96L112.60 5.96L112.60 6.79Q113.05 6.33 113.67 6.08Q114.28 5.84 115.01 5.84L115.01 5.84Z"></path></g><!----><!----><g data-v-423bf9ae="" id="797f7ef9-de1a-4323-8fde-5cf9d2983446" fill="#012B3D" transform="matrix(5.964214324951172,0,0,5.964214324951172,-2.266406774520874,116.65805053710938)"><path d="M4.10 12.41L0.38 12.41L0.38 11.87L0.81 11.87Q1.19 11.87 1.24 11.81L1.24 11.81Q1.31 11.74 1.32 11.46L1.32 11.46L1.32 4.14Q1.32 3.81 1.23 3.72Q1.15 3.64 0.79 3.64L0.79 3.64L0.42 3.64L0.43 3.08L3.32 3.08Q4.46 3.08 5.11 3.19L5.11 3.19Q5.71 3.28 6.19 3.68L6.19 3.68Q7.38 4.64 7.38 6.19L7.38 6.19Q7.38 7.23 6.61 7.98L6.61 7.98Q5.83 8.74 4.42 8.73L4.42 8.73Q4.25 8.73 3.83 8.70L3.83 8.70Q3.73 8.69 3.30 8.62L3.30 8.62Q2.97 8.55 2.87 8.54L2.87 8.54Q2.58 8.47 2.56 8.46L2.56 8.46L2.45 8.44L2.45 11.46Q2.45 11.74 2.58 11.81L2.58 11.81Q2.69 11.87 3.40 11.87L3.40 11.87L4.10 11.87L4.10 12.41ZM2.45 4.28L2.45 8.02Q2.80 8.29 3.77 8.29L3.77 8.29Q4.90 8.29 5.48 7.75L5.48 7.75Q6.06 7.21 6.06 6.16L6.06 6.16Q6.06 4.98 5.15 4.31L5.15 4.31Q4.26 3.64 2.87 3.64L2.87 3.64Q2.62 3.64 2.54 3.75L2.54 3.75Q2.45 3.84 2.45 4.28L2.45 4.28ZM15.69 3.64L15.30 3.64L15.31 3.08L18.53 3.08Q19.67 3.08 20.27 3.21L20.27 3.21Q20.91 3.37 21.38 3.75L21.38 3.75Q22.38 4.57 22.38 5.71L22.38 5.71Q22.38 6.43 21.91 7.04L21.91 7.04Q21.42 7.66 20.38 7.92L20.38 7.92L23.07 11.49Q23.38 11.87 23.67 11.87L23.67 11.87L24.27 11.87L24.30 12.41L22.27 12.41L19.28 8.10L19.11 8.10Q19.07 8.10 19.01 8.11Q18.96 8.11 18.94 8.11L18.94 8.11Q18.06 8.11 17.66 8.03L17.66 8.03L17.66 11.46Q17.66 11.76 17.81 11.81L17.81 11.81Q17.93 11.87 18.63 11.87L18.63 11.87L19.35 11.87L19.32 12.41L15.59 12.41L15.59 11.87L15.91 11.87Q16.38 11.87 16.45 11.81L16.45 11.81Q16.53 11.74 16.53 11.46L16.53 11.46L16.53 4.14Q16.53 3.82 16.34 3.73L16.34 3.73Q16.11 3.64 15.69 3.64L15.69 3.64ZM17.66 4.28L17.66 7.57Q17.85 7.70 18.56 7.71L18.56 7.71Q19.83 7.71 20.41 7.27L20.41 7.27Q21 6.84 21 5.92L21 5.92Q21 4.92 20.23 4.27L20.23 4.27Q19.47 3.64 18.09 3.64L18.09 3.64Q17.83 3.64 17.75 3.75L17.75 3.75Q17.67 3.84 17.66 4.28L17.66 4.28ZM32.44 7.83L32.44 7.83Q32.44 6.62 32.84 5.68L32.84 5.68Q33.26 4.72 33.95 4.12L33.95 4.12Q34.64 3.51 35.50 3.19L35.50 3.19Q36.34 2.88 37.29 2.88L37.29 2.88Q38.55 2.88 39.60 3.40L39.60 3.40Q40.68 3.93 41.39 5.07L41.39 5.07Q42.09 6.17 42.10 7.75L42.10 7.75Q42.10 8.70 41.79 9.54Q41.48 10.38 40.88 11.10Q40.27 11.81 39.33 12.22L39.33 12.22Q38.37 12.63 37.18 12.64L37.18 12.64Q36.05 12.64 35.11 12.23Q34.17 11.83 33.61 11.14L33.61 11.14Q33.04 10.45 32.74 9.60L32.74 9.60Q32.44 8.72 32.44 7.83ZM33.69 7.38L33.69 7.38Q33.69 8.52 34.13 9.60L34.13 9.60Q34.53 10.64 35.46 11.33L35.46 11.33Q36.37 12.03 37.56 12.04L37.56 12.04Q38.93 12.04 39.87 11.01L39.87 11.01Q40.82 9.97 40.82 8.10L40.82 8.10Q40.82 5.99 39.66 4.72L39.66 4.72Q38.51 3.46 37.00 3.45L37.00 3.45Q36.48 3.45 35.93 3.65Q35.39 3.85 34.88 4.25L34.88 4.25Q34.34 4.68 34.02 5.48L34.02 5.48Q33.69 6.27 33.69 7.38ZM50.59 8.24L50.59 8.24Q50.59 6.92 51.21 5.72Q51.82 4.52 53.05 3.72L53.05 3.72Q54.29 2.92 55.91 2.92L55.91 2.92Q57.18 2.92 58.77 3.57L58.77 3.57L58.77 2.86L59.33 2.86L59.42 5.92L58.88 5.93L58.78 4.48Q58.70 4.41 58.43 4.24L58.43 4.24Q58.17 4.07 57.42 3.83L57.42 3.83Q56.70 3.60 55.79 3.60L55.79 3.60Q54.82 3.60 54.05 3.93Q53.28 4.27 52.81 4.83L52.81 4.83Q52.35 5.39 52.10 6.08L52.10 6.08Q51.85 6.78 51.85 7.57L51.85 7.57Q51.85 9.33 52.97 10.69Q54.09 12.05 55.95 12.05L55.95 12.05Q56.65 12.05 57.28 11.85Q57.91 11.66 58.13 11.48L58.13 11.48L58.37 11.28L58.37 8.78L56.71 8.78L56.70 8.23L60.56 8.23L60.57 8.78L59.51 8.78L59.51 11.64L58.72 11.98Q58.02 12.30 57.80 12.39L57.80 12.39Q57.54 12.48 56.90 12.61L56.90 12.61Q56.29 12.74 55.69 12.74L55.69 12.74Q54.39 12.74 53.42 12.37L53.42 12.37Q52.42 12.00 51.81 11.36L51.81 11.36Q51.22 10.76 50.90 9.94L50.90 9.94Q50.59 9.15 50.59 8.24ZM68.65 3.64L68.26 3.64L68.27 3.08L71.49 3.08Q72.63 3.08 73.23 3.21L73.23 3.21Q73.87 3.37 74.33 3.75L74.33 3.75Q75.34 4.57 75.34 5.71L75.34 5.71Q75.34 6.43 74.87 7.04L74.87 7.04Q74.38 7.66 73.34 7.92L73.34 7.92L76.03 11.49Q76.34 11.87 76.63 11.87L76.63 11.87L77.23 11.87L77.26 12.41L75.23 12.41L72.24 8.10L72.06 8.10Q72.02 8.10 71.97 8.11Q71.91 8.11 71.90 8.11L71.90 8.11Q71.02 8.11 70.62 8.03L70.62 8.03L70.62 11.46Q70.62 11.76 70.77 11.81L70.77 11.81Q70.89 11.87 71.59 11.87L71.59 11.87L72.30 11.87L72.28 12.41L68.55 12.41L68.55 11.87L68.87 11.87Q69.34 11.87 69.41 11.81L69.41 11.81Q69.49 11.74 69.49 11.46L69.49 11.46L69.49 4.14Q69.49 3.82 69.30 3.73L69.30 3.73Q69.07 3.64 68.65 3.64L68.65 3.64ZM70.62 4.28L70.62 7.57Q70.81 7.70 71.52 7.71L71.52 7.71Q72.79 7.71 73.37 7.27L73.37 7.27Q73.96 6.84 73.96 5.92L73.96 5.92Q73.96 4.92 73.19 4.27L73.19 4.27Q72.43 3.64 71.05 3.64L71.05 3.64Q70.79 3.64 70.71 3.75L70.71 3.75Q70.63 3.84 70.62 4.28L70.62 4.28ZM85.03 3.64L85.01 3.08L92.22 3.08Q92.24 4.14 92.29 5.28L92.29 5.28L91.75 5.30Q91.73 4.66 91.68 4.25L91.68 4.25Q91.64 3.89 91.58 3.80L91.58 3.80Q91.53 3.71 91.41 3.69L91.41 3.69Q91.31 3.68 90.73 3.68L90.73 3.68L88.35 3.68Q87.80 3.68 87.66 3.77L87.66 3.77Q87.53 3.86 87.53 4.33L87.53 4.33L87.53 6.28Q87.53 6.69 87.59 6.76L87.59 6.76Q87.66 6.84 88.00 6.84L88.00 6.84L90.11 6.84Q90.47 6.84 90.56 6.73L90.56 6.73Q90.64 6.63 90.64 6.14L90.64 6.14L90.64 5.61L91.16 5.63L91.16 8.97L90.64 8.97L90.64 8.24Q90.64 7.66 90.57 7.57L90.57 7.57Q90.49 7.46 90.14 7.46L90.14 7.46L88.04 7.46Q87.71 7.46 87.62 7.54Q87.53 7.63 87.53 7.89L87.53 7.89L87.53 11.20Q87.53 11.57 87.62 11.67Q87.71 11.77 87.98 11.77L87.98 11.77Q90.90 11.75 91.42 11.69L91.42 11.69Q91.94 11.63 92.03 11.38L92.03 11.38L92.03 11.36L92.04 11.35L92.26 10.17L92.74 10.25L92.39 12.41L85.29 12.41L85.29 11.87L85.66 11.87Q86.22 11.87 86.30 11.80L86.30 11.80Q86.40 11.72 86.40 11.33L86.40 11.33L86.40 4.24Q86.40 3.82 86.25 3.73L86.25 3.73Q86.08 3.64 85.42 3.64L85.42 3.64L85.03 3.64ZM100.59 10.04L100.59 10.04L101.08 9.98L101.27 10.85Q101.38 11.33 101.45 11.41Q101.51 11.49 101.92 11.64L101.92 11.64Q102.76 11.95 103.66 11.95L103.66 11.95Q104.45 11.95 104.99 11.49L104.99 11.49Q105.52 11.04 105.52 10.26L105.52 10.26Q105.52 9.65 105.06 9.21L105.06 9.21Q104.58 8.76 103.73 8.30L103.73 8.30L103.15 7.98Q102.41 7.55 102.18 7.36L102.18 7.36Q101.81 7.08 101.50 6.59Q101.19 6.10 101.19 5.46L101.19 5.46Q101.19 4.39 102.03 3.68Q102.87 2.97 103.98 2.97L103.98 2.97Q104.26 2.97 104.61 3.04L104.61 3.04Q104.81 3.08 105.14 3.17L105.14 3.17L105.38 3.25Q105.48 3.25 105.52 3.16L105.52 3.16Q105.57 3.05 105.57 2.98L105.57 2.98L105.59 2.88L106.07 2.85L106.28 5.41L105.77 5.43L105.65 4.18Q104.90 3.62 103.74 3.62L103.74 3.62Q103.10 3.62 102.59 4.05L102.59 4.05Q102.12 4.47 102.12 5.12L102.12 5.12Q102.12 5.72 102.57 6.17L102.57 6.17Q103.00 6.60 103.87 7.08L103.87 7.08L104.64 7.50Q105.59 8.03 106.12 8.59Q106.65 9.15 106.65 9.92L106.65 9.92Q106.65 10.99 105.80 11.76L105.80 11.76Q104.93 12.54 103.48 12.54L103.48 12.54Q102.92 12.54 102.41 12.41Q101.91 12.29 101.86 12.29L101.86 12.29Q101.60 12.29 101.60 12.58L101.60 12.58L101.62 12.76L101.14 12.80Q101.08 12.41 100.59 10.04ZM114.81 10.04L114.81 10.04L115.30 9.98L115.49 10.85Q115.60 11.33 115.66 11.41Q115.73 11.49 116.14 11.64L116.14 11.64Q116.98 11.95 117.88 11.95L117.88 11.95Q118.67 11.95 119.21 11.49L119.21 11.49Q119.74 11.04 119.74 10.26L119.74 10.26Q119.74 9.65 119.28 9.21L119.28 9.21Q118.80 8.76 117.95 8.30L117.95 8.30L117.37 7.98Q116.63 7.55 116.40 7.36L116.40 7.36Q116.03 7.08 115.72 6.59Q115.41 6.10 115.41 5.46L115.41 5.46Q115.41 4.39 116.25 3.68Q117.09 2.97 118.20 2.97L118.20 2.97Q118.48 2.97 118.83 3.04L118.83 3.04Q119.03 3.08 119.36 3.17L119.36 3.17L119.60 3.25Q119.70 3.25 119.74 3.16L119.74 3.16Q119.79 3.05 119.79 2.98L119.79 2.98L119.81 2.88L120.29 2.85L120.50 5.41L119.99 5.43L119.87 4.18Q119.12 3.62 117.96 3.62L117.96 3.62Q117.32 3.62 116.81 4.05L116.81 4.05Q116.33 4.47 116.33 5.12L116.33 5.12Q116.33 5.72 116.79 6.17L116.79 6.17Q117.22 6.60 118.08 7.08L118.08 7.08L118.86 7.50Q119.81 8.03 120.34 8.59Q120.87 9.15 120.87 9.92L120.87 9.92Q120.87 10.99 120.02 11.76L120.02 11.76Q119.15 12.54 117.69 12.54L117.69 12.54Q117.13 12.54 116.63 12.41Q116.13 12.29 116.07 12.29L116.07 12.29Q115.82 12.29 115.82 12.58L115.82 12.58L115.83 12.76L115.36 12.80Q115.29 12.41 114.81 10.04ZM138.64 3.64L138.63 3.08L145.84 3.08Q145.85 4.14 145.91 5.28L145.91 5.28L145.36 5.30Q145.35 4.66 145.29 4.25L145.29 4.25Q145.25 3.89 145.20 3.80L145.20 3.80Q145.14 3.71 145.02 3.69L145.02 3.69Q144.93 3.68 144.34 3.68L144.34 3.68L141.96 3.68Q141.42 3.68 141.27 3.77L141.27 3.77Q141.15 3.86 141.15 4.33L141.15 4.33L141.15 6.28Q141.15 6.69 141.20 6.76L141.20 6.76Q141.27 6.84 141.61 6.84L141.61 6.84L143.73 6.84Q144.09 6.84 144.17 6.73L144.17 6.73Q144.25 6.63 144.26 6.14L144.26 6.14L144.26 5.61L144.77 5.63L144.77 8.97L144.26 8.97L144.26 8.24Q144.26 7.66 144.18 7.57L144.18 7.57Q144.10 7.46 143.75 7.46L143.75 7.46L141.65 7.46Q141.32 7.46 141.23 7.54Q141.15 7.63 141.15 7.89L141.15 7.89L141.15 11.20Q141.15 11.57 141.23 11.67Q141.32 11.77 141.59 11.77L141.59 11.77Q144.51 11.75 145.04 11.69L145.04 11.69Q145.56 11.63 145.64 11.38L145.64 11.38L145.65 11.36L145.65 11.35L145.88 10.17L146.36 10.25L146.01 12.41L138.91 12.41L138.91 11.87L139.28 11.87Q139.84 11.87 139.92 11.80L139.92 11.80Q140.01 11.72 140.01 11.33L140.01 11.33L140.01 4.24Q140.01 3.82 139.86 3.73L139.86 3.73Q139.69 3.64 139.04 3.64L139.04 3.64L138.64 3.64ZM154.72 3.64L154.23 3.64L154.23 3.08L157.75 3.08L157.73 3.64L156.99 3.64Q156.66 3.64 156.66 3.82L156.66 3.82Q156.66 3.98 156.85 4.48L156.85 4.48L159.46 10.94L162.39 4.18Q162.46 3.97 162.47 3.92L162.47 3.92Q162.47 3.79 162.37 3.74Q162.27 3.68 162.13 3.65L162.13 3.65Q162.05 3.64 161.78 3.64L161.78 3.64L161.33 3.64L161.31 3.08L164.14 3.08L164.12 3.64L163.71 3.64Q163.39 3.64 163.24 3.83L163.24 3.83Q163.15 3.93 162.69 4.94L162.69 4.94Q162.48 5.46 162.41 5.57L162.41 5.57L159.28 12.63L159.04 12.63L155.79 4.73Q155.47 3.93 155.33 3.79L155.33 3.79Q155.17 3.63 154.72 3.64L154.72 3.64ZM171.90 3.64L171.88 3.08L179.09 3.08Q179.11 4.14 179.16 5.28L179.16 5.28L178.62 5.30Q178.60 4.66 178.55 4.25L178.55 4.25Q178.51 3.89 178.45 3.80L178.45 3.80Q178.40 3.71 178.28 3.69L178.28 3.69Q178.19 3.68 177.60 3.68L177.60 3.68L175.22 3.68Q174.67 3.68 174.53 3.77L174.53 3.77Q174.41 3.86 174.41 4.33L174.41 4.33L174.41 6.28Q174.41 6.69 174.46 6.76L174.46 6.76Q174.53 6.84 174.87 6.84L174.87 6.84L176.98 6.84Q177.34 6.84 177.43 6.73L177.43 6.73Q177.51 6.63 177.52 6.14L177.52 6.14L177.52 5.61L178.03 5.63L178.03 8.97L177.52 8.97L177.52 8.24Q177.52 7.66 177.44 7.57L177.44 7.57Q177.36 7.46 177.01 7.46L177.01 7.46L174.91 7.46Q174.58 7.46 174.49 7.54Q174.41 7.63 174.41 7.89L174.41 7.89L174.41 11.20Q174.41 11.57 174.49 11.67Q174.58 11.77 174.85 11.77L174.85 11.77Q177.77 11.75 178.29 11.69L178.29 11.69Q178.81 11.63 178.90 11.38L178.90 11.38L178.90 11.36L178.91 11.35L179.14 10.17L179.61 10.25L179.27 12.41L172.16 12.41L172.16 11.87L172.53 11.87Q173.09 11.87 173.17 11.80L173.17 11.80Q173.27 11.72 173.27 11.33L173.27 11.33L173.27 4.24Q173.27 3.82 173.12 3.73L173.12 3.73Q172.95 3.64 172.29 3.64L172.29 3.64L171.90 3.64ZM187.82 3.64L187.43 3.64L187.45 3.08L190.67 3.08Q191.80 3.08 192.40 3.21L192.40 3.21Q193.05 3.37 193.51 3.75L193.51 3.75Q194.52 4.57 194.52 5.71L194.52 5.71Q194.52 6.43 194.04 7.04L194.04 7.04Q193.55 7.66 192.52 7.92L192.52 7.92L195.21 11.49Q195.51 11.87 195.81 11.87L195.81 11.87L196.41 11.87L196.44 12.41L194.41 12.41L191.41 8.10L191.24 8.10Q191.20 8.10 191.15 8.11Q191.09 8.11 191.08 8.11L191.08 8.11Q190.20 8.11 189.80 8.03L189.80 8.03L189.80 11.46Q189.80 11.76 189.94 11.81L189.94 11.81Q190.07 11.87 190.77 11.87L190.77 11.87L191.48 11.87L191.45 12.41L187.73 12.41L187.73 11.87L188.05 11.87Q188.51 11.87 188.58 11.81L188.58 11.81Q188.67 11.74 188.67 11.46L188.67 11.46L188.67 4.14Q188.67 3.82 188.47 3.73L188.47 3.73Q188.25 3.64 187.82 3.64L187.82 3.64ZM189.80 4.28L189.80 7.57Q189.98 7.70 190.70 7.71L190.70 7.71Q191.97 7.71 192.55 7.27L192.55 7.27Q193.14 6.84 193.14 5.92L193.14 5.92Q193.14 4.92 192.36 4.27L192.36 4.27Q191.60 3.64 190.22 3.64L190.22 3.64Q189.97 3.64 189.89 3.75L189.89 3.75Q189.81 3.84 189.80 4.28L189.80 4.28ZM204.33 3.64L204.33 3.64L204.35 3.08L207.48 3.08L207.48 3.64L207.20 3.64Q206.75 3.64 206.64 3.66L206.64 3.66Q206.47 3.71 206.47 3.82L206.47 3.82Q206.47 3.89 206.73 4.31L206.73 4.31L208.73 7.46L211.18 3.99Q211.26 3.83 211.26 3.82L211.26 3.82Q211.26 3.64 210.35 3.64L210.35 3.64L210.13 3.64L210.12 3.08L212.66 3.08L212.66 3.64L212.59 3.64Q212.24 3.64 212.10 3.72L212.10 3.72Q211.94 3.80 211.65 4.22L211.65 4.22L208.93 8.17L208.93 11.22Q208.93 11.66 209.04 11.77L209.04 11.77Q209.13 11.87 209.75 11.87L209.75 11.87L210.38 11.87L210.36 12.41L206.43 12.41L206.45 11.87L207.01 11.87Q207.54 11.87 207.67 11.79Q207.79 11.70 207.79 11.25L207.79 11.25L207.79 8.06L205.50 4.49Q205.08 3.84 204.95 3.73L204.95 3.73Q204.84 3.64 204.33 3.64ZM220.44 3.64L220.40 3.08L224.18 3.08Q225.50 3.08 226.37 3.19L226.37 3.19Q227.19 3.29 227.88 3.69L227.88 3.69Q228.83 4.27 229.33 5.24L229.33 5.24Q229.82 6.21 229.82 7.39L229.82 7.39Q229.82 8.05 229.68 8.65L229.68 8.65Q229.52 9.29 229.13 9.98L229.13 9.98Q228.70 10.73 228.14 11.21L228.14 11.21Q227.51 11.76 226.54 12.08L226.54 12.08Q225.54 12.41 224.27 12.41L224.27 12.41L220.65 12.41L220.64 11.87L221.01 11.87Q221.53 11.87 221.63 11.79L221.63 11.79Q221.74 11.70 221.74 11.25L221.74 11.25L221.74 4.14Q221.74 3.77 221.65 3.71L221.65 3.71Q221.54 3.64 221.03 3.64L221.03 3.64L220.44 3.64ZM222.88 4.39L222.88 11.22Q222.88 11.67 223.04 11.77L223.04 11.77Q223.20 11.87 224.07 11.87L224.07 11.87Q225.12 11.87 225.91 11.61L225.91 11.61Q226.77 11.35 227.21 10.99L227.21 10.99Q227.70 10.58 228.00 10.05Q228.31 9.52 228.44 8.96L228.44 8.96Q228.56 8.41 228.56 7.82L228.56 7.82Q228.56 7.03 228.29 6.34L228.29 6.34Q228.03 5.65 227.50 5.05L227.50 5.05Q226.97 4.46 226.06 4.09L226.06 4.09Q225.13 3.73 223.97 3.73L223.97 3.73L223.45 3.73Q223.09 3.73 222.99 3.85L222.99 3.85Q222.88 3.99 222.88 4.39L222.88 4.39ZM237.81 12.41L237.79 11.87L237.97 11.87Q238.36 11.87 238.49 11.73L238.49 11.73Q238.61 11.57 238.94 10.83L238.94 10.83L239.85 8.82L240.43 7.53Q240.69 6.97 240.73 6.86L240.73 6.86Q240.80 6.70 240.85 6.60Q240.91 6.51 240.92 6.45L240.92 6.45L241.01 6.21L242.44 2.74L242.74 2.74Q243.59 4.98 245.78 10.25L245.78 10.25Q246.23 11.34 246.42 11.64L246.42 11.64Q246.56 11.87 247.00 11.87L247.00 11.87L247.21 11.87L247.19 12.41L244.00 12.41L244.02 11.87L244.43 11.87Q245.05 11.87 245.05 11.70L245.05 11.70Q245.05 11.63 244.91 11.27L244.91 11.27L243.87 8.72L240.63 8.72L239.52 11.18Q239.38 11.50 239.38 11.63L239.38 11.63Q239.38 11.79 239.48 11.83Q239.57 11.87 239.96 11.87L239.96 11.87L240.53 11.87L240.53 12.41L237.81 12.41ZM242.31 4.79L240.89 8.10L243.63 8.10L242.31 4.79ZM255.08 3.64L255.08 3.64L255.10 3.08L258.23 3.08L258.23 3.64L257.95 3.64Q257.50 3.64 257.39 3.66L257.39 3.66Q257.22 3.71 257.22 3.82L257.22 3.82Q257.22 3.89 257.48 4.31L257.48 4.31L259.48 7.46L261.93 3.99Q262.01 3.83 262.01 3.82L262.01 3.82Q262.01 3.64 261.10 3.64L261.10 3.64L260.88 3.64L260.87 3.08L263.41 3.08L263.41 3.64L263.34 3.64Q262.99 3.64 262.85 3.72L262.85 3.72Q262.69 3.80 262.40 4.22L262.40 4.22L259.68 8.17L259.68 11.22Q259.68 11.66 259.79 11.77L259.79 11.77Q259.88 11.87 260.50 11.87L260.50 11.87L261.13 11.87L261.11 12.41L257.18 12.41L257.20 11.87L257.76 11.87Q258.29 11.87 258.42 11.79Q258.54 11.70 258.54 11.25L258.54 11.25L258.54 8.06L256.25 4.49Q255.83 3.84 255.70 3.73L255.70 3.73Q255.59 3.64 255.08 3.64Z"></path></g></svg>